<svg xmlns="http://www.w3.org/2000/svg" version="1.1" xmlns:xlink="http://www.w3.org/1999/xlink" width="200" height="200"><svg xmlns="http://www.w3.org/2000/svg" version="1.1" xmlns:xlink="http://www.w3.org/1999/xlink" viewBox="0 0 200 200"><rect width="200" height="200" fill="url('#gradient')"></rect><defs><linearGradient id="SvgjsLinearGradient1001" gradientTransform="rotate(360 0.5 0.5)"><stop offset="0%" stop-color="#ff9900"></stop><stop offset="100%" stop-color="#f7e81b"></stop></linearGradient></defs><g><g fill="#000000" transform="matrix(1.9869380028395647,0,0,1.9869380028395647,15.86929445622151,114.59769223628876)" stroke="#ffffff" stroke-width="0.45"><path d="M1.07-14.22L5.58-14.22L8.75-4.33L11.91-14.22L16.43-14.22L16.43 0L12.99 0L12.99-3.32L13.32-10.12L9.88 0L7.62 0L4.17-10.13L4.50-3.32L4.50 0L1.07 0L1.07-14.22ZM21.92-10.57L21.92 0L18.62 0L18.62-10.57L21.92-10.57ZM18.43-13.29L18.43-13.29Q18.43-13.99 18.94-14.44Q19.44-14.89 20.25-14.89Q21.06-14.89 21.57-14.44Q22.08-13.99 22.08-13.29Q22.08-12.59 21.57-12.14Q21.06-11.69 20.25-11.69Q19.44-11.69 18.94-12.14Q18.43-12.59 18.43-13.29ZM23.89-10.57L26.97-10.57L27.08-9.33Q28.17-10.76 30.10-10.76L30.10-10.76Q31.75-10.76 32.56-9.78Q33.38-8.79 33.41-6.81L33.41-6.81L33.41 0L30.11 0L30.11-6.67Q30.11-7.47 29.79-7.85Q29.46-8.22 28.61-8.22L28.61-8.22Q27.65-8.22 27.18-7.46L27.18-7.46L27.18 0L23.89 0L23.89-10.57ZM44.29 0L43.46-2.66L38.76-2.66L37.94 0L34.28 0L39.49-14.22L42.71-14.22L47.97 0L44.29 0ZM41.10-10.23L39.58-5.30L42.64-5.30L41.10-10.23ZM54.62-4.82L52.43-4.82L52.43 0L49.00 0L49.00-14.22L54.68-14.22Q56.31-14.22 57.56-13.62Q58.82-13.02 59.51-11.91Q60.20-10.80 60.20-9.39L60.20-9.39Q60.20-7.31 58.71-6.07Q57.22-4.82 54.62-4.82L54.62-4.82ZM52.43-11.57L52.43-7.47L54.68-7.47Q55.67-7.47 56.20-7.97Q56.72-8.47 56.72-9.38L56.72-9.38Q56.72-10.37 56.18-10.97Q55.64-11.56 54.72-11.57L54.72-11.57L52.43-11.57ZM67.64-4.82L65.45-4.82L65.45 0L62.02 0L62.02-14.22L67.70-14.22Q69.33-14.22 70.58-13.62Q71.84-13.02 72.52-11.91Q73.21-10.80 73.21-9.39L73.21-9.39Q73.21-7.31 71.72-6.07Q70.23-4.82 67.64-4.82L67.64-4.82ZM65.45-11.57L65.45-7.47L67.70-7.47Q68.69-7.47 69.21-7.97Q69.74-8.47 69.74-9.38L69.74-9.38Q69.74-10.37 69.20-10.97Q68.66-11.56 67.73-11.57L67.73-11.57L65.45-11.57ZM80.42-2.97L80.42-2.97Q80.42-3.39 79.98-3.64Q79.54-3.90 78.31-4.17Q77.08-4.44 76.28-4.89Q75.48-5.33 75.06-5.97Q74.64-6.60 74.64-7.42L74.64-7.42Q74.64-8.88 75.84-9.82Q77.04-10.76 78.98-10.76L78.98-10.76Q81.07-10.76 82.34-9.81Q83.61-8.87 83.61-7.32L83.61-7.32L80.31-7.32Q80.31-8.59 78.97-8.59L78.97-8.59Q78.46-8.59 78.11-8.31Q77.75-8.02 77.75-7.59L77.75-7.59Q77.75-7.15 78.18-6.88Q78.61-6.60 79.56-6.43Q80.50-6.25 81.21-6.01L81.21-6.01Q83.59-5.19 83.59-3.07L83.59-3.07Q83.59-1.62 82.31-0.71Q81.03 0.20 78.98 0.20L78.98 0.20Q77.63 0.20 76.56-0.29Q75.50-0.78 74.90-1.62Q74.31-2.46 74.31-3.39L74.31-3.39L77.38-3.39Q77.40-2.66 77.87-2.32Q78.34-1.98 79.07-1.98L79.07-1.98Q79.75-1.98 80.08-2.26Q80.42-2.53 80.42-2.97Z"></path></g></g></svg><style>@media (prefers-color-scheme: light) { :root { filter: none; } }
@media (prefers-color-scheme: dark) { :root { filter: none; } }
</style></svg>